<?xml version="1.0" encoding="UTF-8" standalone="no"?>
<svg
   xmlns:dc="http://purl.org/dc/elements/1.1/"
   xmlns:cc="http://creativecommons.org/ns#"
   xmlns:rdf="http://www.w3.org/1999/02/22-rdf-syntax-ns#"
   xmlns:svg="http://www.w3.org/2000/svg"
   xmlns="http://www.w3.org/2000/svg"
   width="24"
   height="24"
   viewBox="0 0 24 24"
   version="1.1"
   id="svg8">
  <defs
     id="defs2">
    <rect
       x="-1.1008456"
       y="289.81766"
       width="7.9207187"
       height="7.0346723"
       id="rect2504" />
  </defs>
  <metadata
     id="metadata5">
    <rdf:RDF>
      <cc:Work
         rdf:about="">
        <dc:format>image/svg+xml</dc:format>
        <dc:type
           rdf:resource="http://purl.org/dc/dcmitype/StillImage" />
      </cc:Work>
    </rdf:RDF>
  </metadata>
  <g
     transform="translate(0,-1.566375)"
     id="g5820"
     style="display:inline">
    <path
       id="ellipse5757"
       style="color:#005bbb;font-style:normal;font-variant:normal;font-weight:normal;font-stretch:normal;font-size:medium;line-height:normal;font-family:sans-serif;font-variant-ligatures:normal;font-variant-position:normal;font-variant-caps:normal;font-variant-numeric:normal;font-variant-alternates:normal;font-variant-east-asian:normal;font-feature-settings:normal;font-variation-settings:normal;text-indent:0;text-align:start;text-decoration:none;text-decoration-line:none;text-decoration-style:solid;text-decoration-color:#005bbb;letter-spacing:normal;word-spacing:normal;text-transform:none;writing-mode:lr-tb;direction:ltr;text-orientation:mixed;dominant-baseline:auto;baseline-shift:baseline;text-anchor:start;white-space:normal;shape-padding:0;shape-margin:0;inline-size:0;clip-rule:nonzero;display:inline;overflow:visible;visibility:visible;opacity:1;isolation:auto;mix-blend-mode:normal;color-interpolation:sRGB;color-interpolation-filters:linearRGB;solid-color:#005bbb;solid-opacity:1;vector-effect:none;fill:#005bbb;fill-opacity:1;fill-rule:nonzero;stroke:none;stroke-linecap:butt;stroke-linejoin:miter;stroke-miterlimit:4;stroke-dasharray:none;stroke-dashoffset:0;stroke-opacity:1;paint-order:fill markers stroke;color-rendering:auto;image-rendering:auto;shape-rendering:auto;text-rendering:auto;enable-background:accumulate;stop-color:#005bbb;stop-opacity:1"
       d="m -28,-76.933594 c -4.412348,0 -8,3.587763 -8,8 0,0.675979 0.08545,1.347545 0.253906,2 H -38.5 v 7.867188 h 21 v -7.867188 h -2.753906 c 0.168163,-0.652393 0.253906,-1.324447 0.253906,-2 0,-4.412237 -3.587652,-8 -8,-8 z m 0,1 c 0.289501,0 0.586513,0.129588 0.908203,0.445313 0.32169,0.315724 0.643815,0.813067 0.917969,1.449219 0.34436,0.799059 0.59928,1.829341 0.751953,2.972656 h -5.15625 c 0.152673,-1.143315 0.407593,-2.173597 0.751953,-2.972656 0.274154,-0.636152 0.596279,-1.133495 0.917969,-1.449219 0.32169,-0.315725 0.618703,-0.445313 0.908203,-0.445313 z m -2.089844,0.316406 c -0.243273,0.344651 -0.462632,0.736899 -0.654297,1.181641 -0.404286,0.938114 -0.685878,2.097349 -0.84375,3.369141 h -3.080078 c 0.690699,-2.167543 2.404353,-3.873908 4.578125,-4.550782 z m 4.179688,0 c 2.173772,0.676874 3.887426,2.383239 4.578125,4.550782 h -3.080078 c -0.157872,-1.271792 -0.439465,-2.431027 -0.84375,-3.369141 -0.191665,-0.444742 -0.411024,-0.836991 -0.654297,-1.181641 z m -8.990235,5.550782 h 3.216797 c -0.02367,0.372936 -0.04883,0.744943 -0.04883,1.132812 0,0.715157 0.05442,1.347263 0.138672,2 h -3.107422 c -0.193511,-0.648826 -0.298828,-1.321801 -0.298828,-2 0,-0.38678 0.03955,-0.76325 0.09961,-1.132812 z m 4.216797,0 h 5.367188 c 0.02541,0.371234 0.04883,0.744723 0.04883,1.132812 0,0.720898 -0.0537,1.336505 -0.144531,2 h -5.175782 c -0.09082,-0.663484 -0.144531,-1.279161 -0.144531,-2 0,-0.388089 0.02341,-0.761578 0.04883,-1.132812 z m 6.367188,0 h 3.216797 c 0.06006,0.369562 0.09961,0.746032 0.09961,1.132812 0,0.678412 -0.10525,1.351139 -0.298828,2 h -3.107422 c 0.08416,-0.652782 0.138672,-1.285232 0.138672,-2 0,-0.387869 -0.02516,-0.759876 -0.04883,-1.132812 z m -10.767578,5.230468 c 0.282526,0.566311 0.566244,1.133292 0.849609,1.699219 l 0.695313,-1.046875 0.818359,1.06836 c 0.252493,-0.569929 0.504022,-1.139581 0.757812,-1.708985 l 0.941407,0.38086 c -0.486403,1.099052 -0.970806,2.197751 -1.457032,3.296875 l -1,-1.304688 -0.882812,1.326172 c -0.549542,-1.096851 -1.098505,-2.19239 -1.648438,-3.289062 z m 5.513672,0 c 0.282526,0.56631 0.566244,1.133292 0.849609,1.699219 l 0.695312,-1.046875 0.81836,1.06836 c 0.252492,-0.569929 0.504022,-1.139581 0.757812,-1.708985 l 0.941407,0.38086 c -0.486404,1.099052 -0.970806,2.197751 -1.457032,3.296875 l -1,-1.304688 -0.880859,1.326172 c -0.549542,-1.096851 -1.098505,-2.19239 -1.648438,-3.289062 z m 5.511718,0 c 0.285142,0.565385 0.569666,1.133244 0.853516,1.699219 l 0.695312,-1.046875 0.816407,1.070313 c 0.252007,-0.570452 0.50639,-1.140251 0.757812,-1.710938 l 0.943359,0.38086 c -0.48972,1.097947 -0.973822,2.197872 -1.460937,3.296875 l -0.996094,-1.302735 -0.882812,1.324219 c -0.549542,-1.096851 -1.098506,-2.19239 -1.648438,-3.289062 z"
       transform="translate(40,81.566375)" />
    <g
       id="g5791"
       transform="matrix(0.90852756,0,0,0.86755777,1.0976693,2.4589418)"
       style="stroke-width:1.12637">
      <g
         transform="translate(-0.06323433)"
         id="g5785"
         style="stroke-width:1.12637" />
    </g>
  </g>
</svg>
