<?xml version="1.0" encoding="UTF-8" standalone="no"?>
<!-- Uploaded to: SVG Repo, www.svgrepo.com, Generator: SVG Repo Mixer Tools -->

<svg
   fill="#000000"
   width="24"
   height="24"
   viewBox="0 0 21.145374 21.145374"
   xml:space="preserve"
   version="1.1"
   id="svg1"
   sodipodi:docname="mastodon.svg"
   inkscape:version="1.3.2 (091e20e, 2023-11-25)"
   xmlns:inkscape="http://www.inkscape.org/namespaces/inkscape"
   xmlns:sodipodi="http://sodipodi.sourceforge.net/DTD/sodipodi-0.dtd"
   xmlns:xlink="http://www.w3.org/1999/xlink"
   xmlns="http://www.w3.org/2000/svg"
   xmlns:svg="http://www.w3.org/2000/svg"><defs
     id="defs1"><linearGradient
       id="swatch1"
       inkscape:swatch="solid"><stop
         style="stop-color:#005bbb;stop-opacity:1;"
         offset="0"
         id="stop1" /></linearGradient><linearGradient
       inkscape:collect="always"
       xlink:href="#swatch1"
       id="linearGradient1"
       x1="2.4506855"
       y1="10.9374"
       x2="21.107178"
       y2="10.9374"
       gradientUnits="userSpaceOnUse"
       gradientTransform="translate(0.04098679,-0.13407748)" /></defs><sodipodi:namedview
     id="namedview1"
     pagecolor="#ffffff"
     bordercolor="#000000"
     borderopacity="0.25"
     inkscape:showpageshadow="2"
     inkscape:pageopacity="0.0"
     inkscape:pagecheckerboard="0"
     inkscape:deskcolor="#d1d1d1"
     inkscape:zoom="40.910025"
     inkscape:cx="13.603023"
     inkscape:cy="13.603023"
     inkscape:window-width="1392"
     inkscape:window-height="1212"
     inkscape:window-x="0"
     inkscape:window-y="124"
     inkscape:window-maximized="0"
     inkscape:current-layer="svg1" /><path
     d="m 21.147436,7.3695148 c 0,-4.3390001 -2.843,-5.6100002 -2.843,-5.6100002 -1.433,-0.6579999 -3.894,-0.93499978 -6.451,-0.95599978 h -0.063 c -2.5570007,0.021 -5.0160011,0.29799988 -6.4500011,0.95599978 0,0 -2.843,1.2720001 -2.843,5.6100002 0,0.993 -0.019,2.1810002 0.012,3.4410012 0.103,4.243 0.778,8.425 4.7010001,9.463 1.8090003,0.479001 3.362001,0.579001 4.612001,0.510001 2.268,-0.126 3.541,-0.809001 3.541,-0.809001 l -0.075,-1.646 c 0,0 -1.621,0.511 -3.441,0.449 -1.804,-0.062 -3.707001,-0.194 -3.999001,-2.409 a 4.5230001,4.5230001 0 0 1 -0.04,-0.621 c 0,0 1.7700003,0.433 4.014001,0.536 1.372,0.063 2.658,-0.08 3.965,-0.236 2.506,-0.299 4.688,-1.843 4.962,-3.254 0.434,-2.223 0.398,-5.4240012 0.398,-5.4240012 z m -3.353,5.5900012 h -2.081 V 7.8605148 c 0,-1.0750001 -0.452,-1.6200001 -1.357,-1.6200001 -1,0 -1.501,0.647 -1.501,1.9270001 v 2.7910012 h -2.069 V 8.1675148 c 0,-1.2800001 -0.501,-1.9270001 -1.5020007,-1.9270001 -0.905,0 -1.3570003,0.546 -1.3570003,1.6200001 V 12.959516 H 5.8464349 V 7.7065148 c 0,-1.0740001 0.273,-1.9270001 0.823,-2.5580001 C 7.235435,4.5175146 7.976435,4.1935146 8.8974354,4.1935146 c 1.065,0 1.8720006,0.409 2.4050006,1.2280001 l 0.518,0.869 0.519,-0.869 c 0.533,-0.8190001 1.34,-1.2280001 2.405,-1.2280001 0.92,0 1.662,0.324 2.228,0.9550001 0.549,0.631 0.822,1.484 0.822,2.5580001 z"
     id="path1"
     style="fill:url(#linearGradient1)" /></svg>
